<?xml version="1.0" encoding="utf-8"?>
<!-- Generator: Adobe Illustrator 24.1.1, SVG Export Plug-In . SVG Version: 6.00 Build 0)  -->
<svg version="1.1" id="Layer_1" xmlns="http://www.w3.org/2000/svg" xmlns:xlink="http://www.w3.org/1999/xlink" x="0px" y="0px"
	 viewBox="0 0 2279.4 1162.1" enable-background="new 0 0 2279.4 1162.1" xml:space="preserve">
<g>
	<path fill-rule="evenodd" clip-rule="evenodd" fill="#FFFFFF" d="M4.9,581C4.9,262.8,511.2,4.9,1139.7,4.9S2274.5,262.8,2274.5,581
		s-506.3,576.1-1134.8,576.1C511.2,1157.2,4.9,899.2,4.9,581L4.9,581z"/>
	<path fill-rule="evenodd" clip-rule="evenodd" fill="#BB2534" d="M1139.7,109.6c641.6,0,1030.1,262.5,1030.1,471.4
		s-388.5,471.4-1030.1,471.4S109.6,789.9,109.6,581C109.7,372.2,498.1,109.6,1139.7,109.6L1139.7,109.6z"/>
	<path fill-rule="evenodd" clip-rule="evenodd" d="M1139.7,0c627.9,0,1139.7,257.7,1139.7,581s-511.8,581-1139.7,581S0,904.3,0,581
		S511.8,0,1139.7,0z M1139.7,9.8C510.6,9.8,9.8,267.9,9.8,581s500.8,571.3,1129.9,571.3S2269.6,894.1,2269.6,581
		S1768.8,9.8,1139.7,9.8L1139.7,9.8z"/>
	<path fill-rule="evenodd" clip-rule="evenodd" d="M2174.7,581c0,213.9-393.9,476.3-1034.9,476.3S104.8,794.9,104.8,581
		s393.9-476.3,1035-476.3S2174.7,367.1,2174.7,581L2174.7,581z M2164.9,581c0-203.8-383-466.5-1025.2-466.5
		C497.6,114.5,114.5,377.2,114.5,581s383,466.5,1025.2,466.5S2164.9,784.8,2164.9,581L2164.9,581z"/>
	<path fill-rule="evenodd" clip-rule="evenodd" fill="#BB2534" d="M1165.9,57.3c0,14.5-11.7,26.2-26.2,26.2s-26.2-11.7-26.2-26.2
		s11.7-26.2,26.2-26.2C1154.2,31.1,1165.9,42.8,1165.9,57.3L1165.9,57.3z M1079.4,58c0.7,14.5-10.4,26.8-24.8,27.5
		c-14.5,0.7-26.8-10.4-27.5-24.8c0-0.3,0-0.6,0-0.9c-0.3-14.5,11.3-26.4,25.7-26.7C1066.9,32.9,1078.7,43.9,1079.4,58z M993,62
		c1,14.4-9.9,26.9-24.3,28c-14.4,1-26.9-9.9-28-24.3c-1-14.4,9.9-26.9,24.3-28C979.5,36.7,992,47.6,993,62z M906.8,69.2
		c2,14.3-7.9,27.6-22.2,29.6S857,90.9,855,76.6c0-0.3-0.1-0.7-0.1-1c-1.5-14.4,9-27.3,23.4-28.7C892.2,45.4,904.8,55.2,906.8,69.2z
		 M821,80.4c2.3,14.3-7.5,27.7-21.8,30c-14.3,2.3-27.7-7.5-30-21.8s7.5-27.7,21.8-30C805.4,56.4,818.8,66.1,821,80.4z M735.8,95
		c3.1,14.1-5.8,28.1-19.9,31.2c-14.1,3.1-28.1-5.8-31.2-19.9c0-0.1-0.1-0.3-0.1-0.4c-2.9-14.2,6.3-28,20.4-30.9
		C719,72.1,732.7,81.1,735.8,95z M651.3,113.8c4,13.9-4,28.4-17.9,32.4c-13.9,4-28.4-4-32.4-17.9c-0.1-0.3-0.2-0.6-0.3-1
		c-3.5-14,5.1-28.2,19.2-31.7C633.5,92.2,647.4,100.3,651.3,113.8z M568,137c4.5,13.7-3,28.5-16.8,33s-28.5-3-33-16.8l0,0
		c-4.5-13.7,3-28.5,16.8-33C548.8,115.8,563.5,123.3,568,137z M486.2,165.1c5.6,13.4-0.8,28.7-14.1,34.2
		c-13.4,5.6-28.7-0.8-34.2-14.1c-0.2-0.4-0.4-0.9-0.5-1.3c-4.8-13.6,2.3-28.6,16-33.4C466.4,145.9,480.9,152.3,486.2,165.1z
		 M406.1,197.8c6.5,12.9,1.3,28.7-11.6,35.2s-28.7,1.3-35.2-11.6c-0.1-0.2-0.2-0.4-0.3-0.6c-6.2-13.1-0.6-28.7,12.5-34.9
		C384.4,179.9,399.7,185.1,406.1,197.8z M328.8,236.7c7.6,12.3,3.8,28.5-8.5,36.1c-12.3,7.6-28.5,3.8-36.1-8.5
		c-0.1-0.2-0.2-0.4-0.4-0.6c-7.3-12.5-3.1-28.5,9.4-35.8C305.6,220.7,321.3,224.6,328.8,236.7z M255.5,282.6
		c8.5,11.7,5.9,28.1-5.8,36.6l0,0c-11.7,8.5-28.1,5.9-36.6-5.8c-8.5-11.7-5.9-28.1,5.8-36.6C230.6,268.3,247,270.9,255.5,282.6
		L255.5,282.6z M187.1,335.6c10.2,10.2,10.2,26.8,0,37s-26.8,10.2-37,0s-10.2-26.8,0-37S176.9,325.4,187.1,335.6L187.1,335.6z
		 M127.7,398.5c12.1,7.9,15.5,24.2,7.5,36.3c-7.9,12.1-24.2,15.5-36.3,7.5c-0.4-0.3-0.9-0.6-1.3-0.9c-11.6-8.7-14-25.1-5.3-36.7
		C100.6,393.6,116.1,390.9,127.7,398.5z M81.1,471.6c13.7,4.7,21,19.6,16.2,33.3c-4.7,13.7-19.6,21-33.3,16.2l0,0
		c-13.7-4.7-21-19.6-16.2-33.3C52.5,474.1,67.4,466.8,81.1,471.6z M1165.9,1104.8c0,14.5-11.7,26.2-26.2,26.2s-26.2-11.7-26.2-26.2
		l0,0c0-14.5,11.7-26.2,26.2-26.2C1154.2,1078.6,1165.9,1090.3,1165.9,1104.8z M1079.4,1104.1c0.2,14.5-11.4,26.3-25.9,26.5
		s-26.3-11.4-26.5-25.9c0-0.8,0-1.7,0.1-2.5c1.2-14.4,13.8-25.1,28.3-24C1068.9,1079.4,1079.3,1090.5,1079.4,1104.1z M993,1100
		c-0.9,14.4-13.3,25.4-27.7,24.5s-25.4-13.3-24.5-27.7c0-0.1,0-0.3,0-0.4c1.1-14.4,13.7-25.2,28.2-24.1
		C983.2,1073.4,993.9,1085.7,993,1100z M906.8,1092.9c-1.5,14.4-14.3,24.9-28.7,23.4s-24.9-14.3-23.4-28.7c0-0.3,0.1-0.7,0.1-1
		c2.1-14.3,15.3-24.3,29.6-22.2C898.4,1066.3,908.3,1078.9,906.8,1092.9z M821.1,1081.7c-2.1,14.3-15.3,24.3-29.7,22.2
		c-14.3-2.1-24.3-15.3-22.2-29.7c0-0.2,0.1-0.5,0.1-0.7c2.5-14.3,16-23.8,30.3-21.4C813.6,1054.5,823.1,1067.6,821.1,1081.7z
		 M735.8,1067c-3,14.1-16.9,23.2-31.1,20.2c-14.1-3-23.2-16.9-20.2-31.1c3-14.1,16.9-23.2,31.1-20.2
		C729.8,1039,738.8,1052.9,735.8,1067L735.8,1067z M651.3,1048.2c-3.4,14.1-17.5,22.7-31.6,19.4c-14.1-3.4-22.7-17.5-19.4-31.6
		c0.1-0.5,0.2-0.9,0.4-1.4c4.1-13.9,18.7-21.8,32.6-17.7C646.7,1021,654.6,1034.7,651.3,1048.2z M568,1025
		c-4.5,13.8-19.2,21.3-33,16.8s-21.3-19.2-16.8-33s19.2-21.3,33-16.8C564.9,996.5,572.5,1011.3,568,1025L568,1025z M486.2,996.9
		c-4.8,13.6-19.8,20.8-33.4,16s-20.8-19.8-16-33.4c0.2-0.4,0.3-0.9,0.5-1.3c5.6-13.4,20.9-19.7,34.2-14.1
		C484.4,969.3,490.8,983.8,486.2,996.9z M406.1,964.2c-6.3,13-22,18.4-35,12.1c-13-6.3-18.4-22-12.1-35s22-18.4,35-12.1
		C407,935.5,412.4,951.2,406.1,964.2L406.1,964.2z M328.8,925.4c-7.4,12.4-23.5,16.4-35.9,8.9s-16.4-23.5-8.9-35.9
		s23.5-16.4,35.9-8.9C332.2,896.9,336.2,913,328.8,925.4L328.8,925.4z M255.5,879.4c-8.3,11.9-24.6,14.8-36.5,6.5
		s-14.8-24.6-6.5-36.5c0.2-0.3,0.4-0.5,0.6-0.8c8.7-11.5,25.2-13.8,36.7-5.1C261.1,852,263.6,867.9,255.5,879.4z M187.1,826.4
		c-10,10.5-26.6,10.8-37,0.8c-10.5-10-10.8-26.6-0.8-37c0.3-0.3,0.5-0.6,0.8-0.8c10.5-10,27-9.6,37,0.8
		C196.8,800.4,196.8,816.3,187.1,826.4z M127.7,763.6c-11.9,8.3-28.2,5.4-36.5-6.4c-8.3-11.9-5.4-28.2,6.4-36.5l0,0
		c11.9-8.3,28.2-5.4,36.5,6.4C142.4,738.9,139.5,755.3,127.7,763.6z M81.1,690.5c-13.6,4.9-28.6-2.1-33.6-15.7
		c-4.9-13.6,2.1-28.6,15.7-33.6c0.3-0.1,0.6-0.2,0.9-0.3c13.8-4.5,28.5,3.1,33,16.9C101.4,671.2,94.3,685.7,81.1,690.5z M58.2,607.2
		c-14.4,0.7-26.8-10.4-27.5-24.8C30,568,41.1,555.6,55.5,554.9c0.3,0,0.6,0,0.9,0c14.5-0.2,26.4,11.3,26.6,25.7
		C83.3,594.7,72.3,606.5,58.2,607.2z M2223.1,554.8c14.4,0.5,25.8,12.6,25.3,27.1c-0.5,14.4-12.6,25.8-27.1,25.3
		s-25.8-12.6-25.3-27.1C2196.5,565.7,2208.7,554.3,2223.1,554.8L2223.1,554.8z M2215.4,641c13.7,4.6,21.1,19.4,16.6,33.1
		c-4.6,13.7-19.4,21.1-33.1,16.6c-0.2-0.1-0.3-0.1-0.5-0.2c-13.6-4.8-20.7-19.8-15.9-33.4C2187.3,643.6,2201.9,636.5,2215.4,641z
		 M2181.9,720.7c12.1,7.9,15.5,24.2,7.5,36.3c-7.9,12.1-24.2,15.5-36.3,7.5c-0.4-0.3-0.9-0.6-1.3-0.9c-11.6-8.7-14-25.1-5.3-36.7
		C2154.8,715.8,2170.3,713.1,2181.9,720.7z M2129.4,789.4c10.2,10.2,10.2,26.8,0,37s-26.8,10.2-37,0s-10.2-26.8,0-37
		C2102.6,779.2,2119.2,779.2,2129.4,789.4z M2066.3,848.6c8.8,11.5,6.5,27.9-5,36.7s-27.9,6.5-36.7-5c-0.2-0.3-0.4-0.6-0.7-0.9
		c-8.2-11.9-5.3-28.2,6.6-36.4C2042,835,2057.8,837.5,2066.3,848.6z M1995.6,898.4c7.4,12.4,3.4,28.5-8.9,35.9
		c-12.4,7.4-28.5,3.4-35.9-8.9c-7.4-12.4-3.4-28.5,8.9-35.9l0,0C1972,882,1988.1,886,1995.6,898.4
		C1995.5,898.4,1995.5,898.4,1995.6,898.4z M1920.4,941.3c6.3,13,0.9,28.7-12.1,35s-28.7,0.9-35-12.1c-6.2-13.1-0.6-28.7,12.5-34.9
		C1898.7,923.3,1914,928.6,1920.4,941.3z M1842.1,978.1c5.8,13.3-0.3,28.7-13.5,34.5c-13.3,5.8-28.7-0.3-34.5-13.5
		c-0.3-0.7-0.6-1.5-0.8-2.2c-4.6-13.7,2.8-28.6,16.6-33.1C1822.7,959.5,1836.7,965.7,1842.1,978.1z M1761.3,1008.8
		c4.5,13.8-3,28.5-16.8,33s-28.5-3-33-16.8c-4.5-13.8,3-28.5,16.8-33C1742,987.6,1756.8,995.1,1761.3,1008.8L1761.3,1008.8z
		 M1678.7,1034.7c3.7,14-4.5,28.3-18.5,32.1c-14,3.7-28.3-4.5-32.1-18.5l0,0c-3.4-14.1,5.3-28.2,19.4-31.6
		C1661,1013.4,1674.8,1021.3,1678.7,1034.7z M1594.9,1056.1c3.3,14.1-5.5,28.2-19.6,31.4c-14.1,3.3-28.2-5.5-31.4-19.6
		c-0.1-0.3-0.1-0.6-0.2-1c-2.7-14.2,6.5-27.9,20.8-30.7C1578.3,1033.7,1591.7,1042.4,1594.9,1056.1z M1510.1,1073.5
		c2.3,14.3-7.5,27.7-21.8,30s-27.7-7.5-30-21.8l0,0c-2.3-14.3,7.5-27.7,21.8-30C1494.5,1049.4,1507.9,1059.2,1510.1,1073.5z
		 M1424.6,1086.5c1.8,14.4-8.4,27.4-22.8,29.2s-27.4-8.4-29.2-22.8c-1.8-14.3,8.4-27.4,22.8-29.2l0,0
		C1409.8,1061.9,1422.9,1072.1,1424.6,1086.5L1424.6,1086.5z M1338.7,1096.3c1,14.4-9.8,26.9-24.2,27.9l0,0
		c-14.4,1-26.9-9.9-28-24.3c-1-14.4,9.9-26.9,24.3-28C1325.2,1071,1337.7,1081.9,1338.7,1096.3L1338.7,1096.3z M1252.4,1102.2
		c0.7,14.4-10.4,26.7-24.8,27.5c-14.4,0.7-26.7-10.4-27.5-24.8c0-0.3,0-0.5,0-0.8c-0.3-14.5,11.2-26.4,25.6-26.7
		C1239.8,1077.1,1251.7,1088.1,1252.4,1102.2L1252.4,1102.2z"/>
	<path fill-rule="evenodd" clip-rule="evenodd" fill="#BB2534" d="M1113.6,57.3c0-14.5,11.7-26.2,26.2-26.2s26.2,11.7,26.2,26.2
		s-11.7,26.2-26.2,26.2C1125.3,83.5,1113.6,71.7,1113.6,57.3z M1200.1,58c0.3-14.5,12.3-26,26.7-25.7s26,12.3,25.7,26.7
		c0,0.3,0,0.5,0,0.8c-0.7,14.5-13,25.6-27.5,24.8C1210.8,84,1199.8,72.1,1200.1,58z M1286.5,62c0.9-14.4,13.3-25.4,27.7-24.5
		c14.4,0.9,25.4,13.3,24.5,27.7c0,0.1,0,0.3,0,0.4c-1.1,14.4-13.7,25.2-28.2,24.1C1296.3,88.6,1285.6,76.3,1286.5,62z M1372.7,69.2
		c1.8-14.4,14.8-24.6,29.2-22.8c14.4,1.8,24.6,14.8,22.8,29.2c-1.8,14.4-14.8,24.6-29.2,22.8C1381.1,96.6,1370.9,83.5,1372.7,69.2z
		 M1458.5,80.4c2.1-14.3,15.4-24.2,29.7-22.1c14.3,2.1,24.2,15.4,22.1,29.7c0,0.2-0.1,0.4-0.1,0.6c-2.4,14.3-16,23.9-30.2,21.4
		C1465.9,107.6,1456.4,94.5,1458.5,80.4z M1543.7,95c3.3-14.1,17.4-22.8,31.5-19.5c13.7,3.2,22.4,16.6,19.8,30.4
		c-3.3,14.1-17.4,22.8-31.5,19.5C1549.8,122.2,1541.1,108.8,1543.7,95z M1628.1,113.8c4.1-13.9,18.7-21.8,32.6-17.7
		c13.3,4,21.3,17.7,18,31.2c-4.1,13.9-18.7,21.8-32.6,17.7C1632.8,141,1624.9,127.3,1628.1,113.8z M1711.5,137
		c4.2-13.9,18.8-21.7,32.6-17.6c13.9,4.2,21.7,18.8,17.6,32.6c-0.1,0.4-0.2,0.8-0.4,1.1c-4.8,13.7-19.7,20.8-33.4,16.1
		C1714.7,164.7,1707.4,150.4,1711.5,137z M1793.3,165.1c5.2-13.5,20.3-20.2,33.8-15.1c13.5,5.2,20.2,20.3,15,33.8
		s-20.3,20.2-33.8,15.1c0,0,0,0-0.1,0C1794.8,193.8,1788.1,178.7,1793.3,165.1C1793.3,165.2,1793.3,165.2,1793.3,165.1z
		 M1873.4,197.8c6.3-13,22-18.4,35-12.1c13,6.3,18.4,22,12.1,35l0,0c-6.3,13-22,18.4-35,12.1C1872.4,226.5,1867,210.8,1873.4,197.8z
		 M1950.7,236.7c7.2-12.6,23.1-17,35.7-9.8s17,23.1,9.8,35.7c-0.2,0.4-0.4,0.7-0.6,1c-7.7,12.2-23.9,15.9-36.1,8.1
		C1947.6,264.3,1943.7,248.8,1950.7,236.7z M2023.9,282.6c8.5-11.7,24.9-14.3,36.6-5.8s14.3,24.9,5.8,36.6s-24.9,14.3-36.6,5.8
		C2018,310.7,2015.4,294.3,2023.9,282.6z M2092.3,335.6c10.2-10.2,26.8-10.2,37,0s10.2,26.8,0,37s-26.8,10.2-37,0
		S2082.1,345.8,2092.3,335.6L2092.3,335.6z M2151.8,398.5c11.8-8.3,28.2-5.4,36.5,6.4s5.4,28.2-6.4,36.5l0,0
		c-11.8,8.3-28.2,5.4-36.5-6.4C2137,423.1,2139.9,406.8,2151.8,398.5z M2198.4,471.6c13.7-4.7,28.6,2.6,33.3,16.2
		c4.7,13.7-2.6,28.6-16.2,33.3l0,0c-13.7,4.7-28.6-2.6-33.3-16.2C2177.4,491.2,2184.7,476.3,2198.4,471.6z"/>
	<path fill-rule="evenodd" clip-rule="evenodd" fill="#FFFFFF" d="M299.5,763.5h113.1c47.3,0,80.6-50.5,80.6-92
		c0-39.6-18.7-63.2-40.2-74.9l-8.5-4.7l8.3-5.1c19.3-11.8,31.8-44.1,31.8-66.2c0-27.9-16.8-66.6-54.5-79.1l1.4-3.9
		c9.8,3.3,17.8,7.9,23.9,12.2c6.3,4.5,10.5,8.6,12.4,10.3c4.8,4.4,13.1,12,20.6,20.5c6.5,7.4,11.9,14.3,15.6,19.8
		c11.1,16.5,16.3,35.8,16.3,51.5c0,21.9-11.7,54.1-31.2,68.1l-1.3,0.9l14.8,14.8c15.2,14.2,26.3,36,26.3,67.1
		c0,42.9-34.3,96.2-84.8,96.2H323.9l-30-29.9L299.5,763.5L299.5,763.5z M390.9,721.5h-35.6V612.7h40.1c17.5,0,32,16,37.7,36.4
		c-2-0.6-4.1-0.8-6.3-0.8H391L390.9,721.5L390.9,721.5z M390.9,570.5c-1.4,0.1-2.8,0.2-4.2,0.2h-31.5v-91.1h31.5
		c18.9,0,36,12.8,39.5,36.5c-2.6-0.6-5.4-0.9-8.1-0.9H391L390.9,570.5L390.9,570.5L390.9,570.5z M667.7,771.5
		c52.8,0,97.8-43.9,97.8-97.2V439.5l5.6-5.6l30,29.9v241.8c0,55.8-47,101.5-102.1,101.5c-23.8,0-48.5-9.9-73.2-28.2
		c-17.4-13-34.6-35.4-37.3-41c-1-2.1-5.1-9-9.7-18.2l2.2-0.6C597.7,750.1,630.8,771.5,667.7,771.5L667.7,771.5z M633.2,433.9
		l30,29.9v241.8c0,2.7,0.3,5.3,0.8,7.8c-21.7-1.7-36.5-18.9-36.5-39.1V439.5L633.2,433.9L633.2,433.9z M867.2,735.5
		c-1.1-2.2-5.5-9.5-10.1-19.2l2.3-0.7c16.1,32.9,50.6,56,88.9,56c66.7,0,97.1-38.7,97.1-97.2v-75.1l5.6-5.6l30,29.9v82.1
		c0,60.7-32.1,101.5-101.4,101.5c-25.1,0-49-9.7-73.8-28.2C887.6,765.3,869.9,741.2,867.2,735.5z M987.8,674.8l-30-29.9l5.6-5.6
		h32.9v35.6L987.8,674.8L987.8,674.8z M907.5,674.3V526.7c0-23.3,16.5-43.3,40.3-45.4c26.2-2.3,45,14.7,48.1,38.4
		c-4.9-1.9-10.3-3.4-16.3-2.9c-21.4,1.9-36.4,20.1-36.4,41.1v147.6c0,4,0.7,7.9,1.9,11.6C922.9,714,907.5,694.5,907.5,674.3
		L907.5,674.3z M1022.7,449.1c8.5,6.5,17.5,14,26.7,24.8c8.4,9.8,14.6,19.5,18.9,27.4c8.5,15.7,12.7,34.9,12.7,56.8v5.6h-58.4
		l-30-29.9l5.6-5.6h47.2v-1.3c0-44.9-17.9-78.3-56.7-91.3l1-4.1C1002.9,435.7,1013.4,442.1,1022.7,449.1L1022.7,449.1z
		 M1236.5,653.5h-42.8l35.3-156.2c2.2-9.6,9.1-9.3,11,0.1l15,74.2L1236.5,653.5L1236.5,653.5z M1291.2,769.1l5.6-5.6h56.4
		l-74.6-324.2l4.2-5.3l30,30l79.9,335.1h-71.5L1291.2,769.1L1291.2,769.1z M1217.6,736.9l-14,62.1h-69.9l-29.9-29.8l7.4-5.7h57.6
		l14.1-62.1h98.5l7.2,35.6L1217.6,736.9L1217.6,736.9z M1445.3,769.7l5.6-5.6h55.8V488.4h68.9v-49l5.6-5.6l30,29.9V524h-68.9v275.7
		h-67.1L1445.3,769.7L1445.3,769.7z M1406.4,524l-30-29.9l5.6-5.6h67V524H1406.4L1406.4,524z M1658.7,524l-30-29.9l5.6-5.6h67V524
		H1658.7L1658.7,524z M1833.6,433.9l30,29.9V524h-68.9v275.7h-67l-30-30l5.6-5.6h55.8V488.4h68.9v-49L1833.6,433.9L1833.6,433.9z
		 M1955.7,433.9l30,29.9V799h-67l-30-29.9l5.6-5.6h55.8v-324L1955.7,433.9L1955.7,433.9z"/>
	<path fill-rule="evenodd" clip-rule="evenodd" fill="#9894C6" d="M491,520.7c0-17.7-6.4-39.9-20.3-57.7
		c4.9,4.5,11.5,10.8,17.6,17.8c6.5,7.4,11.9,14.3,15.6,19.8c11.1,16.5,16.3,35.8,16.3,51.5c0,21.9-11.7,54.1-31.2,68.1l-1.3,0.9
		l14.8,14.8c15.2,14.2,26.3,36,26.3,67.1c0,42.9-34.3,96.2-84.8,96.2H323.9L294.7,770h118c52.1,0,87-54.8,87-98.4
		c0-41.3-19.3-66.9-42.3-79.9C478.5,577.8,491,543.6,491,520.7L491,520.7z M390.9,715.1h-29.2v-96h33.7c12.8,0,25.3,12,30.8,29.2
		H391L390.9,715.1L390.9,715.1z M386.8,486c15,0,29.2,9.6,32.8,29.2h-1.4H391V564c-1.3,0.1-2.7,0.2-4.2,0.2h-25.1V486H386.8z
		 M663.3,705.6v1.3c-17.6-2-29.3-16.1-29.3-32.6V434.6l29.2,29.2L663.3,705.6L663.3,705.6z M597.1,750c18.8,17.3,43.8,28,70.6,28
		c56.3,0,104.2-46.7,104.2-103.6V434.6l29.2,29.2v241.8c0,55.8-47,101.5-102.1,101.5c-23.8,0-48.5-9.9-73.2-28.2
		C615.1,770.8,604.3,759,597.1,750L597.1,750z M876.9,749.6c19,17.6,44.3,28.4,71.3,28.4c70.6,0,103.5-41.9,103.5-103.7v-80
		l29.2,29.2v82.1c0,60.7-32.1,101.5-101.4,101.5c-25.1,0-49-9.7-73.8-28.2C895,770.8,884.3,759,876.9,749.6z M958.5,645.6h31.3v29.2
		h-2.1L958.5,645.6z M948.3,487.8c21.3-1.9,36.9,10.9,40.7,29.9c-3.1-0.7-6.3-1-9.5-0.8c-21.4,1.9-36.4,20.1-36.4,41.1v147.6
		c0,1.6,0.1,3.2,0.3,4.9c-17.6-3.9-29.6-19.8-29.6-36.1V526.8C913.9,506.4,928.1,489.5,948.3,487.8z M993.4,534.5h58.4v-7.8
		c0-30.3-7.9-55.8-24.3-73.9c7.1,5.7,14.4,12.2,22,21c8.4,9.8,14.6,19.5,18.9,27.4c8.5,15.7,12.7,34.9,12.7,56.8v5.6h-58.4
		L993.4,534.5L993.4,534.5z M1237.9,647.1h-36.3l32.7-144.8l17.2,84.5L1237.9,647.1z M1292,769.9h69.3l-76.9-334.4l28.5,28.5
		l79.9,335.1h-71.5L1292,769.9L1292,769.9z M1104.5,769.9h69.4l14.1-62.1h88.2l5.9,29.2h-64.4l-14,62.1h-69.9L1104.5,769.9z
		 M1446.1,770.5h67.1V494.8h68.9v-60.2l29.2,29.2V524h-68.9v275.7h-67.1L1446.1,770.5z M1377.2,494.8h65.4V524h-36.2L1377.2,494.8z
		 M1629.5,494.8h65.5V524h-36.2L1629.5,494.8z M1698.4,770.5h67V494.8h68.9v-60.2l29.2,29.2V524h-68.9v275.7h-67L1698.4,770.5z
		 M1889.4,769.9h67V434.6l29.2,29.2V799h-67L1889.4,769.9z"/>
	<path fill-rule="evenodd" clip-rule="evenodd" d="M292,769.1l7-7h113.7c46.3,0,79.2-49.5,79.2-90.6c0-39.1-18.4-62.3-39.5-73.7
		l-10.6-5.8l10.3-6.3c18.8-11.4,31.1-43.2,31.1-65c0-27.9-17-66.5-54.9-78.2l2.3-6.4c21.2,6.7,34.1,19.7,38,23.2
		c4.8,4.4,13.2,12,20.7,20.6c6.5,7.4,11.9,14.4,15.7,19.9c11.3,16.7,16.5,36.3,16.5,52.2c0,22.2-11.8,54.8-31.7,69.1l13.6,13.7
		c15.5,14.5,26.7,36.7,26.7,68c0,43.4-34.7,97.6-86.2,97.6H323.3L292,769.1L292,769.1z M392.3,649.6v73.3h-38.4V611.3h41.5
		c19.1,0,34.4,18,39.6,39.8c-2.6-1-5.4-1.5-8.2-1.5H392.3L392.3,649.6z M392.3,516.5v55.2c-1.8,0.2-3.7,0.3-5.5,0.3H354v-93.8h32.8
		c20.1,0,38.2,14,41.1,39.6c-3.1-0.9-6.4-1.4-9.7-1.4h-25.9V516.5z M581.8,717.4c16.2,31.2,49.1,52.7,85.9,52.7
		c52.1,0,96.5-43.3,96.5-95.9V438.9l7-7l31.4,31.3v242.4c0,56.5-47.6,102.9-103.4,102.9c-24.1,0-49.2-10-74-28.5
		c-17.5-13.1-34.9-35.6-37.7-41.5c-1-2.2-5.6-9.7-10.4-19.7L581.8,717.4z M626.3,438.9l7-7l31.4,31.3v242.4c0,3.2,0.4,6.3,1.2,9.3
		c-23.4-0.9-39.6-19.1-39.6-40.6L626.3,438.9L626.3,438.9z M1256.4,571.6l-18.8,83.3H1192l35.7-157.9c2.6-11.1,11.5-10.6,13.6,0.2
		L1256.4,571.6L1256.4,571.6z M1320.7,800.4l-31.4-31.3l7-7h55.3l-74.3-323.2l5.6-7l31.4,31.3l80.3,337.2H1320.7z M1290.2,738.3
		h-71.5l-14.1,62.1h-71.5l-31.4-31.3l9-7h57l14-62.1h100.7L1290.2,738.3L1290.2,738.3z M1474.8,801.1l-31.4-31.3l7-7h55V487.1h68.9
		v-48.2l7-7l31.4,31.3v62.1h-68.9V801L1474.8,801.1L1474.8,801.1z M1450.4,525.4h-44.6l-31.4-31.3l7-7h68.9L1450.4,525.4
		L1450.4,525.4L1450.4,525.4z M1702.7,525.4h-44.5l-31.4-31.3l7-7h68.9V525.4L1702.7,525.4z M1826.6,438.9l7-7l31.4,31.3v62.1h-68.9
		V801h-68.9l-31.4-31.3l7-7h55V487.1h68.9L1826.6,438.9L1826.6,438.9z M1948.7,438.9l7-7l31.4,31.3v337.2h-68.9l-31.4-31.3l7-7h55
		L1948.7,438.9L1948.7,438.9z M905,779.9c-18.4-13.7-36.2-37.9-39-43.8c-1.1-2.3-5.9-10.2-10.7-20.6l4.9-1.6
		c15.7,33.1,50,56.3,88.2,56.3c65.9,0,95.8-38,95.8-95.9v-75.7l7-7l31.4,31.3v82.7c0,61.3-32.6,102.9-102.7,102.9
		C954.1,808.5,929.9,798.6,905,779.9z M997.6,676.2h-10.5l-31.4-31.3l7-7h34.8v36.4L997.6,676.2L997.6,676.2z M947,718.9
		c-24-2.4-40.9-23-40.9-44.6V526.7c0-24,17-44.6,41.5-46.7c27.8-2.4,47.6,16.3,49.8,41.9c-5.3-2.2-11.3-4.2-17.8-3.6
		c-20.6,1.8-35.1,19.4-35.1,39.8v147.6C944.5,710.2,945.4,714.7,947,718.9L947,718.9z M988.6,429.6c14.1,4.4,25.2,11.1,34.9,18.4
		c8.5,6.6,17.6,14.1,26.9,25c7.3,8.5,13.7,17.8,19,27.6c8.6,15.9,12.9,35.4,12.9,57.4v7H1022l-31.4-31.3l7-7h46.4
		c0-45-18-77.9-57-90.4L988.6,429.6L988.6,429.6z"/>
	<path fill-rule="evenodd" clip-rule="evenodd" fill="#FFFFFF" d="M360.9,618.3v97.6h34.5c21.9,0,34.5-24,34.5-48.8
		c0-26.6-16.6-48.8-34.5-48.8H360.9L360.9,618.3z M360.9,485.2V565h25.9c21.9,0,34.5-15.2,34.5-39.9c0-26.6-16.6-39.9-34.5-39.9
		L360.9,485.2L360.9,485.2L360.9,485.2z M455.7,591.6c23.3,12.7,43.1,38.1,43.1,79.9c0,43.4-34.7,97.6-86.2,97.6H292V431.9h112
		c60.3,0,86.2,53.2,86.2,88.7C490.2,543.9,477.3,578.5,455.7,591.6L455.7,591.6z M702.2,674.3V431.9h68.9v242.4
		c0,56.5-47.6,102.8-103.4,102.8s-103.4-46.3-103.4-102.8V431.9h68.9v242.4c0,18.2,14,33.6,34.5,33.6
		C688.2,707.9,702.2,692.5,702.2,674.3L702.2,674.3z M990.7,674.3v-29.5h-34.8v-53.2h95.2v82.7c0,61.3-32.6,102.9-102.7,102.9
		c-55.8,0-104.1-46.3-104.1-102.9V526.7c0-56.5,48.3-102.8,104.1-102.8c70.2,0,102.7,41.5,102.7,102.8v7h-60.3v-7
		c0-24.3-17.3-42-42.4-39.8c-20.6,1.8-35.2,19.1-35.2,39.8v147.6c0,18.2,14.6,35.9,35.2,37.7C973.3,714.2,990.7,698.6,990.7,674.3z
		 M1264.7,647.8l-30.3-149.4l-33.7,149.4H1264.7L1264.7,647.8z M1101.7,769.1l86.2-337.2h94.8l77.6,337.2h-71l-12.6-62.1h-89.4
		l-14.1,62.1H1101.7z M1512.3,769.7h-68.9V494h-68.9v-62.1h206.9V494h-69L1512.3,769.7L1512.3,769.7z M1764.7,769.7h-68.9V494h-68.9
		v-62.1h206.9V494h-69L1764.7,769.7L1764.7,769.7z M1886.7,431.9h68.9v337.2h-68.9V431.9z"/>
	<path fill-rule="evenodd" clip-rule="evenodd" fill="#9894C6" d="M1159.1,282.4V339h56c17.7,0,28.3-12.7,28.3-28.3
		s-10.6-28.3-28.3-28.3L1159.1,282.4L1159.1,282.4z M1159.1,194.5V245h56c15.7,0,25.3-11.3,25.3-25.2s-9.6-25.2-25.3-25.2h-56V194.5
		z M1050.9,283.7v-52h31.2V245h35.1v-50.5H1033v17h-31.2v-48.1h213.4c32.9,0,59.5,26.6,59.5,59.5c0,14.4-5.2,28.4-14.7,39.2
		l-0.8,0.9l0.9,0.9c24.1,24.7,23.6,64.4-1.1,88.5c-11.7,11.4-27.4,17.8-43.7,17.8h-213.4V322h31.2v17h84.2v-56.6H1082v13.4h-31.2
		L1050.9,283.7L1050.9,283.7z"/>
	<path fill-rule="evenodd" clip-rule="evenodd" d="M1215.1,337.6c16.9,0,27-12.1,27-27s-10.1-27-27-27h-54.7v53.9L1215.1,337.6
		L1215.1,337.6z M1215.1,243.6c14.9,0,23.9-10.7,23.9-23.9s-9-23.9-23.9-23.9h-54.7v47.8L1215.1,243.6L1215.1,243.6z M1083.4,283.7
		V297h-33.9v-66.8h33.9v13.4h32.4v-47.8h-81.5v17h-33.9V162h214.8c33.6,0,60.9,27.3,60.8,60.9c0,14.7-5.4,29-15.1,40.1
		c24.6,25.3,24.1,65.8-1.2,90.4c-11.9,11.6-27.9,18.1-44.6,18.1h-214.7v-50.8h33.9v17h81.5v-53.9h-32.4V283.7z"/>
</g>
</svg>
