<?xml version="1.0" encoding="utf-8"?>
<!-- Generator: Adobe Illustrator 24.1.1, SVG Export Plug-In . SVG Version: 6.00 Build 0)  -->
<svg version="1.1" id="Layer_1" xmlns="http://www.w3.org/2000/svg" xmlns:xlink="http://www.w3.org/1999/xlink" x="0px" y="0px"
	 viewBox="0 0 18 18" style="enable-background:new 0 0 18 18;" xml:space="preserve">
<style type="text/css">
	.st0{fill:#B3B3B3;}
</style>
<g>
	<path class="st0" d="M17,5.5c0-1-0.3-1.9-0.9-2.7c-0.9-1.2-2.2-1.7-3.6-1.7C11.3,0.9,10.2,0.9,9,0.9c-1.2,0-2.3,0-3.5,0.1
		C4.6,1,3.7,1.2,2.9,1.8C1.6,2.6,1.1,3.9,1,5.4c-0.1,2.4-0.1,4.7,0,7.1c0,0.9,0.3,1.8,0.8,2.5c0.9,1.3,2.2,1.9,3.7,1.9
		c2.4,0.1,4.7,0.1,7.1,0c0.8,0,1.6-0.2,2.3-0.6c1.5-0.9,2.1-2.2,2.2-3.9C17.1,10.2,17.1,7.8,17,5.5z M15.5,12.7
		c-0.1,1.7-1.2,2.8-2.8,2.9c-2.5,0.1-4.9,0.1-7.4,0c-1.6-0.1-2.7-1.2-2.8-2.8c0-0.2,0-0.4,0-0.6c0-1,0-2.1,0-3.1
		c0-1.2-0.1-2.4,0-3.6c0.1-1.7,1.2-2.8,2.9-2.9c2.4-0.1,4.9-0.1,7.3,0c1.7,0.1,2.7,1.2,2.8,2.8C15.7,7.8,15.7,10.2,15.5,12.7z"/>
	<path class="st0" d="M9,4.9C6.7,4.8,4.9,6.7,4.9,9c0,2.3,1.9,4.1,4.1,4.1c2.3,0,4.1-1.9,4.1-4.2C13.1,6.7,11.3,4.9,9,4.9z M9,11.7
		c-1.5,0-2.7-1.2-2.7-2.7c0-1.5,1.2-2.7,2.7-2.7c1.5,0,2.7,1.2,2.7,2.7C11.7,10.5,10.5,11.7,9,11.7z"/>
	<path class="st0" d="M13.3,3.7c-0.5,0-0.9,0.4-1,1c0,0.5,0.4,1,1,1c0.5,0,1-0.4,1-1C14.3,4.1,13.8,3.7,13.3,3.7z"/>
</g>
</svg>
