<svg xmlns="http://www.w3.org/2000/svg" viewBox="0 0 19.58 27.04"><g id="Layer_2" data-name="Layer 2"><g id="Layer_18" data-name="Layer 18"><path d="M8.24.14a10.25,10.25,0,0,0-3.87,1.5,10.4,10.4,0,0,0-2.09,1.9,9.44,9.44,0,0,0-2.12,8,18.26,18.26,0,0,0,2,5.25A52,52,0,0,0,9,26.6a.9.9,0,0,0,1.54,0,57.45,57.45,0,0,0,5.28-7,29.86,29.86,0,0,0,3-6A10.55,10.55,0,0,0,19.42,8,10.44,10.44,0,0,0,11.76.23,8.52,8.52,0,0,0,10.64,0,10.55,10.55,0,0,0,8.24.14ZM9.79,14.73a4.93,4.93,0,1,1,4.93-4.91A4.93,4.93,0,0,1,9.79,14.73Z" fill="#f2f2f2"/></g></g></svg>