<?xml version="1.0" encoding="utf-8"?>
<!-- Generator: Adobe Illustrator 24.1.1, SVG Export Plug-In . SVG Version: 6.00 Build 0)  -->
<svg version="1.1" id="Layer_1" xmlns="http://www.w3.org/2000/svg" xmlns:xlink="http://www.w3.org/1999/xlink" x="0px" y="0px"
	 viewBox="0 0 18 18" style="enable-background:new 0 0 18 18;" xml:space="preserve">
<style type="text/css">
	.st0{fill:#B3B3B3;}
</style>
<path class="st0" d="M1.7,14c1.5,0,2.9-0.4,4.2-1.4c-1.5-0.1-2.5-0.9-3-2.2c0.5,0.1,0.9,0.1,1.4-0.1C2.6,9.8,1.7,8.6,1.7,7.1
	c0.4,0.2,0.9,0.4,1.4,0.4c-1.4-1.2-1.7-2.6-1-4.3C2.6,3.7,3,4.1,3.4,4.5c1.5,1.3,3.3,2,5.2,2.1c0.2,0,0.2,0,0.1-0.2
	c-0.2-1.6,0.5-2.9,1.9-3.5c1.2-0.5,2.6-0.3,3.5,0.6c0.1,0.1,0.2,0.1,0.4,0.1c0.6-0.2,1.2-0.4,1.8-0.7c-0.2,0.8-0.7,1.3-1.3,1.7
	c0.6,0,1.1-0.2,1.7-0.4c0,0.1-0.1,0.2-0.1,0.2c-0.4,0.5-0.8,0.9-1.2,1.2c-0.1,0.1-0.2,0.2-0.2,0.4c0,2.7-0.9,5-2.9,6.9
	c-1.8,1.7-3.9,2.5-6.4,2.5c-1.7,0-3.2-0.5-4.7-1.3C1.4,13.9,1.5,14,1.7,14z"/>
</svg>
