<?xml version="1.0" encoding="utf-8"?>
<!-- Generator: Adobe Illustrator 24.1.1, SVG Export Plug-In . SVG Version: 6.00 Build 0)  -->
<svg version="1.1" id="Layer_1" xmlns="http://www.w3.org/2000/svg" xmlns:xlink="http://www.w3.org/1999/xlink" x="0px" y="0px"
	 viewBox="0 0 18 18" style="enable-background:new 0 0 18 18;" xml:space="preserve">
<style type="text/css">
	.st0{fill:#B3B3B3;}
</style>
<g id="Layer_2_1_">
	<g id="Layer_21">
		<path class="st0" d="M17.5,5.2c-0.1-1-0.8-1.8-1.8-2c-0.3-0.1-0.6-0.1-0.9-0.1c-2-0.2-3.9-0.2-6-0.2c-2.1,0-4.2,0.1-6.3,0.3
			C1.6,3.2,0.7,4,0.6,5C0.4,5.9,0.3,6.9,0.2,7.8c-0.1,1.7,0,3.3,0.3,5c0.1,1,0.8,1.8,1.8,2C2.7,14.9,3.1,15,3.6,15
			c2,0.1,4,0.2,6.1,0.2c1.9,0,3.8-0.1,5.7-0.3c1-0.1,1.9-0.8,2.1-1.9c0.2-1,0.3-1.9,0.3-2.9C17.8,8.5,17.7,6.8,17.5,5.2z M7.2,11.6
			V6.4L11.8,9L7.2,11.6z"/>
	</g>
</g>
</svg>
